<?xml version="1.0" encoding="utf-8"?>
<!-- Generator: Adobe Illustrator 19.1.0, SVG Export Plug-In . SVG Version: 6.00 Build 0)  -->
<svg version="1.1" id="Layer_1" xmlns="http://www.w3.org/2000/svg" xmlns:xlink="http://www.w3.org/1999/xlink" x="0px" y="0px"
	 viewBox="0 0 20 20" style="enable-background:new 0 0 20 20;" xml:space="preserve">
<path d="M10,0C4.5,0,0,4.5,0,10c0,5.5,4.5,10,10,10s10-4.5,10-10C20,4.5,15.5,0,10,0z M8,4.4C8,3.6,8.6,3,9.4,3h1.3
	C11.4,3,12,3.6,12,4.4v5.3c0,0.8-0.6,1.4-1.4,1.4H9.4C8.6,11,8,10.4,8,9.6V4.4z M10,17.5c-1.4,0-2.5-1.1-2.5-2.5
	c0-1.4,1.1-2.5,2.5-2.5s2.5,1.1,2.5,2.5C12.5,16.4,11.4,17.5,10,17.5z"/>
</svg>
