<?xml version="1.0" encoding="utf-8"?>
<!-- Generator: Adobe Illustrator 19.1.0, SVG Export Plug-In . SVG Version: 6.00 Build 0)  -->
<svg version="1.1" id="Layer_1" xmlns="http://www.w3.org/2000/svg" xmlns:xlink="http://www.w3.org/1999/xlink" x="0px" y="0px"
	 viewBox="296 -296 612 612" style="enable-background:new 296 -296 612 612;" xml:space="preserve">
<path d="M602-296c-168.3,0-306,137.7-306,306s137.7,306,306,306S908,178.3,908,10S770.3-296,602-296z M540.8-161.4
	c0-24.5,18.4-42.8,42.8-42.8h39.8c21.4,0,39.8,18.4,39.8,42.8V0.8c0,24.5-18.4,42.8-42.8,42.8h-36.7c-24.5-3.1-42.8-21.4-42.8-45.9
	L540.8-161.4L540.8-161.4z M602,239.5c-42.8,0-76.5-33.7-76.5-76.5s33.7-76.5,76.5-76.5s76.5,33.7,76.5,76.5S644.8,239.5,602,239.5z
	"/>
</svg>
